<?xml version="1.0" encoding="utf-8"?>
<!-- Generator: Adobe Illustrator 21.0.0, SVG Export Plug-In . SVG Version: 6.00 Build 0)  -->
<svg version="1.1" id="Layer_1" xmlns="http://www.w3.org/2000/svg" xmlns:xlink="http://www.w3.org/1999/xlink" x="0px" y="0px"
	 viewBox="0 0 800 380" style="enable-background:new 0 0 800 380;" xml:space="preserve">
<style type="text/css">
	.st0{fill:#FFFFFF;}
</style>
<title>Artboard 2</title>
<desc>Created with Sketch.</desc>
<g>
	<path class="st0" d="M215.3,142.4c0,3.7-0.6,7.7-1.9,11.9c-1.3,4.2-3.4,8.2-6.3,11.8c-2.9,3.6-6.7,6.7-11.3,9.1
		c-4.6,2.4-10.3,3.6-17,3.6H64.4c-2.2,0-4.2-0.4-6-1.2c-1.9-0.8-3.5-1.8-4.8-3.2c-1.4-1.4-2.4-3-3.2-4.8c-0.8-1.9-1.2-3.9-1.2-6
		V27.9c0-2.1,0.4-4.1,1.2-5.9c0.8-1.9,1.8-3.5,3.2-4.9c1.4-1.4,3-2.5,4.8-3.2c1.9-0.8,3.9-1.2,6-1.2h100.8c3.7,0,7.7,0.7,11.9,2
		s8.2,3.4,11.9,6.3c3.7,2.9,6.7,6.7,9.2,11.3c2.4,4.6,3.6,10.3,3.6,17V55c0,5.3-0.9,11.1-2.7,17.2s-4.6,12-8.6,17.4
		c3.4,2.1,6.6,4.6,9.6,7.5s5.6,6.3,7.8,10.2c2.2,3.9,4,8.2,5.3,13.1s2,10.2,2,16.1L215.3,142.4L215.3,142.4z M185.2,136.6
		c0-3.9-0.6-7.5-1.9-10.6c-1.2-3.1-3-5.8-5.2-8.1c-2.2-2.2-4.9-4-8.1-5.2c-3.2-1.2-6.7-1.8-10.7-1.8H91.4V80.6h54.3
		c3.9,0,7.5-0.6,10.7-1.8c3.2-1.2,5.9-2.9,8.1-5.2c2.2-2.2,4-4.9,5.2-8.1c1.2-3.1,1.8-6.7,1.8-10.6v-5.7c0-4.3-2.1-6.5-6.3-6.5H79.4
		v105.9h99.4c0.5,0,1.2,0,2-0.1s1.5-0.3,2.1-0.7s1.2-1,1.6-2c0.5-0.9,0.7-2.2,0.7-3.8L185.2,136.6L185.2,136.6z"/>
	<path class="st0" d="M394.1,178.9H256.7c-2.2,0-4.2-0.4-6-1.2c-1.9-0.8-3.5-1.8-4.8-3.2c-1.4-1.4-2.4-3-3.2-4.8
		c-0.8-1.9-1.2-3.9-1.2-6v-151h30.1v136h122.5V178.9z"/>
	<path class="st0" d="M570.2,163.7c0,2.2-0.4,4.2-1.2,6c-0.8,1.9-1.9,3.5-3.2,4.8c-1.4,1.4-3,2.4-4.9,3.2s-3.8,1.2-5.9,1.2h-67.9
		c-6.4,0-12.9-0.7-19.5-2.1c-6.6-1.4-12.9-3.5-19.1-6.4s-11.9-6.6-17.3-11.1s-10.1-9.8-14.2-15.9c-4.1-6.1-7.2-13.2-9.6-21.1
		c-2.3-7.9-3.5-16.7-3.5-26.5V12.7H434v83.1c0,8.5,1.2,15.7,3.5,21.6c2.4,5.9,5.3,10.8,9,14.7c3.6,3.9,7.6,7,11.9,9.3
		c4.3,2.2,8.4,3.9,12.3,5s7.3,1.8,10.3,2c3,0.3,4.9,0.4,5.9,0.4h53v-136H570v150.9H570.2z"/>
	<path class="st0" d="M755.3,178.9H646.7c-4.2,0-8.7-0.7-13.7-2.2c-4.9-1.5-9.5-3.9-13.7-7.2c-4.2-3.4-7.7-7.7-10.5-13.1
		c-2.8-5.4-4.2-12-4.2-19.8V27.9c0-2.1,0.4-4.1,1.2-5.9c0.8-1.9,1.8-3.5,3.2-4.9c1.4-1.4,3-2.5,4.8-3.2c1.9-0.8,3.9-1.2,6-1.2h135.7
		v30.1H634.6v93.7c0,3.9,1,7,3.1,9s5.1,3.1,9.2,3.1h108.5L755.3,178.9L755.3,178.9z M741.8,111h-95.1V80.6h95.1V111z"/>
</g>
<g>
	<path class="st0" d="M169,367.9h-18.7v-61l-32.9,57.9c-0.8,1.5-1.9,2.6-3.4,3.4s-3,1.1-4.7,1.1c-1.6,0-3.1-0.4-4.5-1.1
		c-1.4-0.8-2.5-1.9-3.3-3.4l-33.1-57.9v61H49.8v-94.5c0-2.1,0.6-4,1.9-5.7c1.3-1.7,2.9-2.8,5-3.4c1-0.2,2-0.3,3-0.2s2,0.3,2.9,0.6
		c0.9,0.4,1.8,0.9,2.5,1.5c0.8,0.6,1.4,1.4,1.9,2.3l42.3,73.5l42.3-73.5c1.1-1.8,2.6-3.1,4.5-3.9s3.9-0.9,6-0.4
		c2,0.6,3.6,1.7,4.9,3.4c1.3,1.7,1.9,3.6,1.9,5.7v94.6H169z"/>
	<g>
		<path class="st0" d="M295.2,289.7c-2.1-5.3-5.1-9.8-8.9-13.6c-3.8-3.8-8.3-6.8-13.5-8.9s-10.9-3.2-17-3.2h-25.1
			c-6.1,0-11.8,1.1-17.1,3.2c-5.2,2.1-9.8,5.1-13.6,8.9s-6.8,8.3-9,13.6c-2.2,5.3-3.2,11-3.2,17.2v19.6c0,6.2,1.1,12,3.2,17.2
			c2.2,5.2,5.2,9.8,9,13.6c3.8,3.8,8.3,6.8,13.6,8.9c5.2,2.1,10.9,3.2,17.1,3.2h25.1c6.1,0,11.8-1.1,17-3.2s9.7-5.1,13.5-8.9
			s6.8-8.3,8.9-13.6c2.1-5.2,3.2-11,3.2-17.2v-19.6C298.5,300.7,297.4,295,295.2,289.7z M288.9,305.1l-26.4,16.4
			c-0.8,0.6-1.1,4.3-0.8,5.3l10.1,31.1c0.3,0.9-0.1,1.1-0.8,0.6l-26.4-19.2c-0.8-0.5-1.9-0.5-2.7,0l-26.4,19.2
			c-0.7,0.5-1.1,0.3-0.8-0.6l10.1-31.1c0.3-0.9-0.1-2-0.8-2.6L197.3,305c-0.7-0.5-0.6-1,0.3-1h32.7c1-0.1,1.9-0.7,2.2-1.7l10.1-31
			c0.3-0.9,0.7-0.9,1,0l10.1,31.1c0.3,0.9,1.2,1.6,2.2,1.7h32.7C289.5,304.1,289.6,304.5,288.9,305.1z"/>
		<polygon class="st0" points="242.6,243 267.5,255.8 276.1,243.8 242.6,224.8 209.1,243.8 217.8,255.8 		"/>
	</g>
	<path class="st0" d="M382.7,307.3h65.2v-41.9h18.6v102.4h-18.6V326h-65.2v41.9h-18.6V265.5h18.6V307.3z"/>
	<path class="st0" d="M467.6,225.1l34.4,20l-5,10.7l-37.3-13.4L467.6,225.1z M506.9,367.9h-18.6V265.5h18.6V367.9z"/>
	<path class="st0" d="M631,360c0,1.3-0.2,2.6-0.8,3.7c-0.5,1.1-1.2,2.1-2,3c-0.8,0.8-1.8,1.5-3,2c-1.1,0.5-2.4,0.7-3.6,0.7
		c-1.1,0-2.3-0.2-3.5-0.6s-2.2-1.1-3.1-2.1l-67.9-70.9v72.1h-18.6v-94.5c0-1.9,0.5-3.6,1.6-5.2c1.1-1.5,2.4-2.7,4.1-3.5
		c1.8-0.7,3.6-0.9,5.4-0.5c1.9,0.4,3.5,1.2,4.8,2.6l67.9,70.8v-72.1H631V360z"/>
	<path class="st0" d="M671.3,307.3h65.2v-41.9h18.6v102.4h-18.6V326h-65.2v41.9h-18.6V265.5h18.6V307.3z"/>
</g>
<title>Звезда</title>
</svg>
